<svg width="600" height="600" viewBox="0 0 600 600" fill="none" xmlns="http://www.w3.org/2000/svg">
<circle cx="300" cy="300" r="300" fill="#BCB73E" fill-opacity="0.74"/>
<rect x="112" y="230" width="319" height="139" fill="#7D1B1B"/>
<rect x="112" y="369" width="33" height="109" fill="#184032"/>
<rect x="157" y="369" width="33" height="109" fill="#184032"/>
<rect x="398" y="369" width="33" height="109" fill="#184032"/>
<rect x="353" y="369" width="33" height="109" fill="#184032"/>
<circle cx="492.5" cy="238.5" r="61.5" fill="#313CA0"/>
<line x1="453.733" y1="247.054" x2="534.733" y2="259.054" stroke="#838B27" stroke-width="10"/>
<circle cx="477" cy="215" r="8" fill="#C4C4C4"/>
<circle cx="526" cy="223" r="8" fill="#C4C4C4"/>
<line x1="116.284" y1="233.579" x2="54.2838" y2="336.579" stroke="#7D1B1B" stroke-width="10"/>
<path d="M248.5 93.806C248.5 105.099 207.42 115.192 184.5 115.192C161.58 115.192 145 133.599 145 122.306C145 111.013 161.58 85.306 184.5 85.306C207.42 85.306 248.5 82.5125 248.5 93.806Z" fill="#35769B"/>
<path d="M449.5 63.806C449.5 75.0995 408.42 85.1925 385.5 85.1925C362.58 85.1925 346 103.599 346 92.306C346 81.0125 362.58 55.306 385.5 55.306C408.42 55.306 449.5 52.5125 449.5 63.806Z" fill="#35769B"/>
<path d="M329.5 41.5212C329.5 53.9441 292.763 74.3964 271.5 74.3964C250.237 74.3964 233 76.4376 233 64.0148C233 51.592 250.237 41.5213 271.5 41.5213C292.763 41.5213 329.5 29.0984 329.5 41.5212Z" fill="#35769B"/>
</svg>
